{
  "accessors": [
    {
      "bufferView": 2,
      "componentType": 5126,
      "count": 1675,
      "max": [
        42.165679931640625,
        16.279769897460938,
        30.022144317626953
      ],
      "min": [
        -42.80863952636719,
        0.21451301872730255,
        -29.741016387939453
      ],
      "type": "VEC3"
    },
    {
      "bufferView": 2,
      "byteOffset": 20100,
      "componentType": 5126,
      "count": 1675,
      "max": [
        1.0,
        1.0,
        1.0
      ],
      "min": [
        -1.0,
        -1.0,
        -1.0
      ],
      "type": "VEC3"
    },
    {
      "bufferView": 3,
      "componentType": 5126,
      "count": 1675,
      "max": [
        1.0,
        1.0,
        1.0,
        1.0
      ],
      "min": [
        -1.0,
        -1.0,
        -1.0,
        1.0
      ],
      "type": "VEC4"
    },
    {
      "bufferView": 1,
      "componentType": 5126,
      "count": 1675,
      "max": [
        0.994194746017456,
        0.9983182549476624
      ],
      "min": [
        0.00206155888736248,
        0.0047493912279605865
      ],
      "type": "VEC2"
    },
    {
      "bufferView": 1,
      "byteOffset": 13400,
      "componentType": 5126,
      "count": 1675,
      "max": [
        0.994194746017456,
        0.9983182549476624
      ],
      "min": [
        0.00206155888736248,
        0.0047493912279605865
      ],
      "type": "VEC2"
    },
    {
      "bufferView": 1,
      "byteOffset": 26800,
      "componentType": 5126,
      "count": 1675,
      "max": [
        0.994194746017456,
        0.9983182549476624
      ],
      "min": [
        0.00206155888736248,
        0.0047493912279605865
      ],
      "type": "VEC2"
    },
    {
      "bufferView": 1,
      "byteOffset": 40200,
      "componentType": 5126,
      "count": 1675,
      "max": [
        0.994194746017456,
        0.9983182549476624
      ],
      "min": [
        0.00206155888736248,
        0.0047493912279605865
      ],
      "type": "VEC2"
    },
    {
      "bufferView": 0,
      "componentType": 5125,
      "count": 3756,
      "type": "SCALAR"
    }
  ],
  "asset": {
    "extras": {
      "author": "Domenico Bianco - Pizza&Games (https://sketchfab.com/pizzaandgames)",
      "license": "SKETCHFAB Standard (https://sketchfab.com/licenses)",
      "source": "https://sketchfab.com/3d-models/vhs-player-f8418832380041eaa4e1625578487f56",
      "title": "VHS Player"
    },
    "generator": "Sketchfab-15.34.0",
    "version": "2.0"
  },
  "bufferViews": [
    {
      "buffer": 0,
      "byteLength": 15024,
      "name": "floatBufferViews",
      "target": 34963
    },
    {
      "buffer": 0,
      "byteLength": 53600,
      "byteOffset": 15024,
      "byteStride": 8,
      "name": "floatBufferViews",
      "target": 34962
    },
    {
      "buffer": 0,
      "byteLength": 40200,
      "byteOffset": 68624,
      "byteStride": 12,
      "name": "floatBufferViews",
      "target": 34962
    },
    {
      "buffer": 0,
      "byteLength": 26800,
      "byteOffset": 108824,
      "byteStride": 16,
      "name": "floatBufferViews",
      "target": 34962
    }
  ],
  "buffers": [
    {
      "byteLength": 135624,
      "uri": "scene.bin"
    }
  ],
  "extensionsUsed": [
    "KHR_materials_specular"
  ],
  "images": [
    {
      "uri": "textures/M_VHS_Player_baseColor.png"
    },
    {
      "uri": "textures/M_VHS_Player_metallicRoughness.png"
    },
    {
      "uri": "textures/M_VHS_Player_emissive.png"
    },
    {
      "uri": "textures/M_VHS_Player_normal.png"
    }
  ],
  "materials": [
    {
      "doubleSided": true,
      "emissiveFactor": [
        1.0,
        1.0,
        1.0
      ],
      "emissiveTexture": {
        "index": 2
      },
      "extensions": {
        "KHR_materials_specular": {
          "specularColorFactor": [
            1.0,
            1.0,
            1.0
          ],
          "specularFactor": 0.4490990504742546
        }
      },
      "name": "M_VHS_Player",
      "normalTexture": {
        "index": 3
      },
      "pbrMetallicRoughness": {
        "baseColorTexture": {
          "index": 0
        },
        "metallicRoughnessTexture": {
          "index": 1
        }
      }
    }
  ],
  "meshes": [
    {
      "name": "SM_VHS_Player_M_VHS_Player_0",
      "primitives": [
        {
          "attributes": {
            "NORMAL": 1,
            "POSITION": 0,
            "TANGENT": 2,
            "TEXCOORD_0": 3,
            "TEXCOORD_1": 4,
            "TEXCOORD_2": 5,
            "TEXCOORD_3": 6
          },
          "indices": 7,
          "material": 0,
          "mode": 4
        }
      ]
    }
  ],
  "nodes": [
    {
      "children": [
        1
      ],
      "matrix": [
        0.6142527461051941,
        0.0,
        0.0,
        0.0,
        0.0,
        1.3639150833304339e-16,
        -0.6142527461051941,
        0.0,
        0.0,
        0.6142527461051941,
        1.3639150833304339e-16,
        0.0,
        0.0,
        0.0,
        0.0,
        1.0
      ],
      "name": "Sketchfab_model"
    },
    {
      "children": [
        2
      ],
      "matrix": [
        0.009999999776482582,
        0.0,
        0.0,
        0.0,
        0.0,
        0.0,
        0.009999999776482582,
        0.0,
        0.0,
        -0.009999999776482582,
        0.0,
        0.0,
        0.0,
        0.0,
        0.0,
        1.0
      ],
      "name": "4805759ee371484184b61eb8d39b126d.fbx"
    },
    {
      "children": [
        3
      ],
      "name": "RootNode"
    },
    {
      "children": [
        4
      ],
      "name": "SM_VHS_Player"
    },
    {
      "mesh": 0,
      "name": "SM_VHS_Player_M_VHS_Player_0"
    }
  ],
  "samplers": [
    {
      "magFilter": 9729,
      "minFilter": 9987,
      "wrapS": 10497,
      "wrapT": 10497
    }
  ],
  "scene": 0,
  "scenes": [
    {
      "name": "Sketchfab_Scene",
      "nodes": [
        0
      ]
    }
  ],
  "textures": [
    {
      "sampler": 0,
      "source": 0
    },
    {
      "sampler": 0,
      "source": 1
    },
    {
      "sampler": 0,
      "source": 2
    },
    {
      "sampler": 0,
      "source": 3
    }
  ]
}
