{
	"asset":{
		"generator":"Khronos glTF Blender I/O v3.6.27",
		"version":"2.0"
	},
	"scene":0,
	"scenes":[
		{
			"name":"Scene",
			"nodes":[
				4
			]
		}
	],
	"nodes":[
		{
			"mesh":0,
			"name":"Mesh_0349.rip_mat0.001_0"
		},
		{
			"children":[
				0
			],
			"name":"Mesh_0349.rip",
			"rotation":[
				-0.70710688829422,
				0,
				0,
				0.7071066498756409
			]
		},
		{
			"children":[
				1
			],
			"name":"RootNode"
		},
		{
			"children":[
				2
			],
			"name":"c191013755c64cd0a633ddab459c5579.fbx",
			"rotation":[
				0.70710688829422,
				0,
				0,
				0.7071066498756409
			],
			"scale":[
				0.009999999776482582,
				0.010000000707805157,
				0.010000000707805157
			]
		},
		{
			"children":[
				3
			],
			"name":"Sketchfab_model",
			"rotation":[
				-0.70710688829422,
				0,
				0,
				0.7071066498756409
			]
		}
	],
	"materials":[
		{
			"alphaCutoff":0.449099063873291,
			"alphaMode":"MASK",
			"doubleSided":true,
			"name":"mat0.002",
			"pbrMetallicRoughness":{
				"baseColorTexture":{
					"index":0
				},
				"metallicFactor":0
			}
		}
	],
	"meshes":[
		{
			"name":"Mesh_0349.rip_mat0.001_0",
			"primitives":[
				{
					"attributes":{
						"POSITION":0,
						"NORMAL":1,
						"TEXCOORD_0":2
					},
					"indices":3,
					"material":0
				}
			]
		}
	],
	"textures":[
		{
			"sampler":0,
			"source":0
		}
	],
	"images":[
		{
			"bufferView":4,
			"mimeType":"image/png",
			"name":"mat0.001_baseColor"
		}
	],
	"accessors":[
		{
			"bufferView":0,
			"componentType":5126,
			"count":2005,
			"max":[
				587.673828125,
				588.1046752929688,
				1601.2335205078125
			],
			"min":[
				-587.671875,
				-530.6091918945312,
				-38.904197692871094
			],
			"type":"VEC3"
		},
		{
			"bufferView":1,
			"componentType":5126,
			"count":2005,
			"type":"VEC3"
		},
		{
			"bufferView":2,
			"componentType":5126,
			"count":2005,
			"type":"VEC2"
		},
		{
			"bufferView":3,
			"componentType":5123,
			"count":4842,
			"type":"SCALAR"
		}
	],
	"bufferViews":[
		{
			"buffer":0,
			"byteLength":24060,
			"byteOffset":0,
			"target":34962
		},
		{
			"buffer":0,
			"byteLength":24060,
			"byteOffset":24060,
			"target":34962
		},
		{
			"buffer":0,
			"byteLength":16040,
			"byteOffset":48120,
			"target":34962
		},
		{
			"buffer":0,
			"byteLength":9684,
			"byteOffset":64160,
			"target":34963
		},
		{
			"buffer":0,
			"byteLength":73678,
			"byteOffset":73844
		}
	],
	"samplers":[
		{
			"magFilter":9729,
			"minFilter":9987
		}
	],
	"buffers":[
		{
			"byteLength":147524,
			"uri":"data:application/octet-stream;base64,"
		}
	]
}
