{"accessors":[{"bufferView":0,"byteOffset":0,"componentType":5126,"count":60,"max":[1.25068,7.501,2.501],"min":[-1.25067,0,0],"normalized":false,"type":"VEC3"},{"bufferView":1,"byteOffset":0,"componentType":5126,"count":60,"max":[1,0,1,1],"min":[-0.000015,-0.000015,-1,1],"normalized":false,"type":"VEC4"},{"bufferView":2,"byteOffset":0,"componentType":5126,"count":60,"max":[1,0.316326,1],"min":[-1,-1,-0.948666],"normalized":false,"type":"VEC3"},{"bufferView":3,"byteOffset":0,"componentType":5126,"count":60,"max":[1,1],"min":[0,0],"normalized":false,"type":"VEC2"},{"bufferView":4,"byteOffset":0,"componentType":5125,"count":60,"max":[59],"min":[0],"normalized":false,"type":"SCALAR"}],"asset":{"generator":"Godot Engine v4.1.3.stable.mono.official@f06b6836a9ecfd0e6ec96d8bcf0fe9c9bc10dcbf","version":"2.0"},"bufferViews":[{"buffer":0,"byteLength":720,"byteOffset":0},{"buffer":0,"byteLength":960,"byteOffset":720},{"buffer":0,"byteLength":720,"byteOffset":1680},{"buffer":0,"byteLength":480,"byteOffset":2400},{"buffer":0,"byteLength":240,"byteOffset":2880}],"buffers":[{"byteLength":3120,"uri":"ramp0.bin"}],"materials":[{"extensions":{},"pbrMetallicRoughness":{"baseColorFactor":[0.99999988079071,0.99999988079071,0.99999988079071,1],"metallicFactor":0,"roughnessFactor":1}}],"meshes":[{"extras":{"targetNames":[]},"primitives":[{"attributes":{"NORMAL":2,"POSITION":0,"TANGENT":1,"TEXCOORD_0":3},"indices":4,"material":0,"mode":4}]}],"nodes":[{"children":[1,2,3,4],"extensions":{},"mesh":0,"name":"ProtoRamp22","rotation":[-0.70710676908493,0.00000000000000000000000935848648,-0,0.70710676908493],"translation":[-2.5,5,-2.5]},{"extensions":{},"name":"_CSGPolygon3D_115239","rotation":[0,-0.70710676908493,0,0.70710676908493],"translation":[-1.25066995620728,0,0]},{"extensions":{},"name":"_CSGPolygon3D_124876","rotation":[0,-0.70710676908493,0,0.70710676908493],"translation":[-0.5,0,0]},{"extensions":{},"name":"_CSGPolygon3D_134755","rotation":[0,-0.70710676908493,0,0.70710676908493],"translation":[-0.5,0,0]},{"extensions":{},"name":"_CSGPolygon3D_135337","rotation":[0,-0.70710676908493,0,0.70710676908493],"translation":[-0.5,0,0]}],"scene":0,"scenes":[{"nodes":[0]}]}